<svg width="1410" height="793" viewBox="0 0 1410 793" fill="none" xmlns="http://www.w3.org/2000/svg">
<g filter="url(#filter0_d_392_3558)">
<g clip-path="url(#clip0_392_3558)">
<path d="M118.367 201.503C117.45 203.347 117.452 205.533 118.369 207.377L104.379 221.367C102.535 220.45 100.347 220.45 98.5035 221.367L62.3469 185.21C63.264 183.367 63.264 181.179 62.3469 179.335L76.3372 165.345C78.1805 166.262 80.3671 166.264 82.2104 165.347L118.367 201.503ZM121.079 201.264L82.4503 162.634C80.6973 164.387 77.8521 164.387 76.0973 162.633L59.6345 179.095C61.3892 180.85 61.3892 183.695 59.6345 185.45L98.2636 224.079C100.018 222.325 102.864 222.325 104.618 224.079L121.081 207.617C119.326 205.862 119.326 203.017 121.079 201.264Z" fill="white" fill-opacity="0.6"/>
<path d="M115.326 201.721C114.599 203.301 114.693 205.225 115.581 206.884L103.884 218.581C102.223 217.695 100.303 217.601 98.7194 218.328L65.3859 184.994C66.1148 183.413 66.0188 181.49 65.1332 179.83L76.8298 168.133C78.4905 169.019 80.4113 169.113 81.9927 168.388L115.326 201.721Z" fill="white" fill-opacity="0.6"/>
</g>
<g clip-path="url(#clip1_392_3558)">
<path d="M1113.91 733.046C1112.99 734.89 1112.99 737.076 1113.91 738.92L1099.92 752.91C1098.08 751.993 1095.89 751.993 1094.05 752.91L1057.89 716.753C1058.81 714.91 1058.81 712.722 1057.89 710.878L1071.88 696.888C1073.72 697.805 1075.91 697.807 1077.75 696.89L1113.91 733.046ZM1116.62 732.807L1077.99 694.177C1076.24 695.93 1073.39 695.93 1071.64 694.176L1055.18 710.638C1056.93 712.393 1056.93 715.238 1055.18 716.993L1093.81 755.622C1095.56 753.868 1098.41 753.868 1100.16 755.622L1116.62 739.16C1114.87 737.405 1114.87 734.559 1116.62 732.807Z" fill="white" fill-opacity="0.6"/>
<path d="M1110.87 733.264C1110.14 734.844 1110.24 736.768 1111.12 738.427L1099.43 750.124C1097.77 749.238 1095.85 749.144 1094.26 749.871L1060.93 716.538C1061.66 714.956 1061.56 713.034 1060.68 711.373L1072.37 699.676C1074.03 700.562 1075.95 700.656 1077.54 699.931L1110.87 733.264Z" fill="white" fill-opacity="0.6"/>
</g>
<g clip-path="url(#clip2_392_3558)">
<path d="M1359.91 626.046C1358.99 627.89 1358.99 630.076 1359.91 631.92L1345.92 645.91C1344.08 644.993 1341.89 644.993 1340.05 645.91L1303.89 609.753C1304.81 607.91 1304.81 605.722 1303.89 603.878L1317.88 589.888C1319.72 590.805 1321.91 590.807 1323.75 589.89L1359.91 626.046ZM1362.62 625.807L1323.99 587.177C1322.24 588.93 1319.39 588.93 1317.64 587.176L1301.18 603.638C1302.93 605.393 1302.93 608.238 1301.18 609.993L1339.81 648.622C1341.56 646.868 1344.41 646.868 1346.16 648.622L1362.62 632.16C1360.87 630.405 1360.87 627.559 1362.62 625.807Z" fill="white" fill-opacity="0.6"/>
<path d="M1356.87 626.264C1356.14 627.844 1356.24 629.768 1357.12 631.427L1345.43 643.124C1343.77 642.238 1341.85 642.144 1340.26 642.871L1306.93 609.537C1307.66 607.956 1307.56 606.033 1306.68 604.373L1318.37 592.676C1320.03 593.562 1321.95 593.656 1323.54 592.931L1356.87 626.264Z" fill="white" fill-opacity="0.6"/>
</g>
<g clip-path="url(#clip3_392_3558)">
<path d="M84.832 590.897C83.6347 593.304 83.6371 596.159 84.8344 598.566L66.5682 616.832C64.1615 615.635 61.3042 615.635 58.8975 616.832L11.69 569.625C12.8874 567.218 12.8874 564.361 11.69 561.954L29.9563 543.688C32.363 544.885 35.2179 544.887 37.6246 543.69L84.832 590.897ZM88.3735 590.584L37.9378 540.149C35.6491 542.437 31.9342 542.437 29.6431 540.146L8.14857 561.641C10.4397 563.932 10.4397 567.647 8.14857 569.938L58.5843 620.373C60.8754 618.082 64.5903 618.082 66.8814 620.373L88.3759 598.879C86.0848 596.588 86.0848 592.873 88.3735 590.584Z" fill="white" fill-opacity="0.6"/>
<path d="M80.8617 591.182C79.9125 593.244 80.0354 595.757 81.1942 597.923L65.9226 613.194C63.7543 612.038 61.2464 611.915 59.1793 612.864L15.6579 569.343C16.6095 567.278 16.4843 564.768 15.3279 562.599L30.5995 547.328C32.7677 548.484 35.2757 548.607 37.3403 547.66L80.8617 591.182Z" fill="white" fill-opacity="0.6"/>
</g>
<g clip-path="url(#clip4_392_3558)">
<path d="M1200.89 392.753C1201.81 390.91 1201.81 388.723 1200.89 386.88L1214.88 372.89C1216.72 373.807 1218.91 373.807 1220.75 372.89L1256.91 409.046C1255.99 410.89 1255.99 413.078 1256.91 414.922L1242.92 428.912C1241.08 427.995 1238.89 427.993 1237.05 428.91L1200.89 392.753ZM1198.18 392.993L1236.81 431.622C1238.56 429.869 1241.4 429.869 1243.16 431.624L1259.62 415.161C1257.87 413.407 1257.87 410.561 1259.62 408.807L1220.99 370.177C1219.24 371.932 1216.39 371.932 1214.64 370.177L1198.18 386.64C1199.93 388.395 1199.93 391.24 1198.18 392.993Z" fill="white" fill-opacity="0.6"/>
<path d="M1203.93 392.536C1204.66 390.956 1204.56 389.032 1203.68 387.373L1215.37 375.676C1217.03 376.562 1218.95 376.656 1220.54 375.929L1253.87 409.262C1253.14 410.844 1253.24 412.766 1254.12 414.427L1242.43 426.124C1240.77 425.238 1238.85 425.144 1237.26 425.869L1203.93 392.536Z" fill="white" fill-opacity="0.6"/>
</g>
<g clip-path="url(#clip5_392_3558)">
<path d="M281.444 396.885C279.882 397.016 278.46 397.881 277.622 399.206L262.993 395.624C262.862 394.062 261.998 392.638 260.673 391.8L269.93 353.993C271.491 353.862 272.916 352.998 273.753 351.673L288.382 355.255C288.513 356.817 289.375 358.241 290.7 359.078L281.444 396.885ZM282.671 398.556L292.56 358.163C290.727 357.715 289.604 355.863 290.053 354.028L272.838 349.813C272.389 351.648 270.537 352.772 268.702 352.322L258.813 392.715C260.648 393.164 261.772 395.016 261.322 396.851L278.537 401.066C278.986 399.231 280.838 398.107 282.671 398.556Z" fill="white" fill-opacity="0.6"/>
<path d="M280.102 394.992C278.786 395.143 277.571 395.964 276.842 397.196L264.611 394.202C264.532 392.772 263.835 391.484 262.737 390.741L271.27 355.886C272.587 355.736 273.8 354.914 274.531 353.682L286.762 356.676C286.841 358.107 287.539 359.394 288.635 360.137L280.102 394.992Z" fill="white" fill-opacity="0.6"/>
</g>
<g clip-path="url(#clip6_392_3558)">
<path d="M1342.93 71.9931C1344.49 71.8622 1345.91 70.9977 1346.75 69.673L1361.38 73.2545C1361.51 74.8163 1362.38 76.2406 1363.7 77.0782L1354.44 114.885C1352.88 115.016 1351.46 115.88 1350.62 117.205L1335.99 113.624C1335.86 112.062 1335 110.638 1333.67 109.8L1342.93 71.9931ZM1341.7 70.3225L1331.81 110.715C1333.65 111.164 1334.77 113.016 1334.32 114.851L1351.53 119.065C1351.98 117.23 1353.84 116.107 1355.67 116.556L1365.56 76.1634C1363.73 75.7141 1362.6 73.8624 1363.05 72.0275L1345.84 67.813C1345.39 69.6479 1343.54 70.7713 1341.7 70.3225Z" fill="white" fill-opacity="0.6"/>
<path d="M1344.27 73.8863C1345.59 73.7358 1346.8 72.9147 1347.53 71.6821L1359.76 74.6765C1359.84 76.107 1360.54 77.3943 1361.64 78.1376L1353.1 112.993C1351.79 113.143 1350.57 113.964 1349.84 115.197L1337.61 112.202C1337.53 110.772 1336.83 109.484 1335.74 108.742L1344.27 73.8863Z" fill="white" fill-opacity="0.6"/>
</g>
<g clip-path="url(#clip7_392_3558)">
<path d="M381.756 133.138C378.876 135.881 377.437 139.853 377.887 143.805L343.255 159.989C340.512 157.108 336.538 155.665 332.585 156.115L290.76 66.6113C293.641 63.8682 295.084 59.8938 294.634 55.9414L329.266 39.7577C332.009 42.6386 335.979 44.0836 339.931 43.6335L381.756 133.138ZM386.841 134.49L342.155 38.8656C337.816 40.8933 332.648 39.0173 330.619 34.6735L289.866 53.7174C291.895 58.0613 290.019 63.2287 285.676 65.2586L330.361 160.883C334.705 158.853 339.872 160.729 341.902 165.073L382.655 146.029C380.625 141.685 382.501 136.518 386.841 134.49Z" fill="white" fill-opacity="0.6"/>
<path d="M376.09 131.528C373.729 133.917 372.631 137.474 373.149 141.072L344.194 154.603C341.762 151.899 338.336 150.462 334.981 150.738L296.421 68.223C298.788 65.8317 299.881 62.2766 299.368 58.6766L328.322 45.1461C330.754 47.8495 334.181 49.2869 337.531 49.0126L376.09 131.528Z" fill="white" fill-opacity="0.6"/>
</g>
<g clip-path="url(#clip8_392_3558)">
<path d="M267.818 683.629C266.376 683.636 265.008 684.327 264.144 685.481L250.984 681.137C250.977 679.695 250.287 678.326 249.133 677.462L260.359 643.451C261.801 643.444 263.17 642.755 264.034 641.6L277.194 645.944C277.201 647.386 277.889 648.754 279.044 649.618L267.818 683.629ZM268.822 685.251L280.816 648.914C279.167 648.37 278.27 646.59 278.815 644.939L263.33 639.828C262.785 641.478 261.005 642.375 259.354 641.83L247.361 678.167C249.011 678.712 249.908 680.491 249.363 682.142L264.849 687.253C265.394 685.603 267.173 684.706 268.822 685.251Z" fill="white" fill-opacity="0.6"/>
<path d="M266.723 681.796C265.506 681.839 264.332 682.504 263.574 683.582L252.571 679.95C252.602 678.632 252.056 677.401 251.102 676.64L261.451 645.284C262.67 645.242 263.843 644.576 264.603 643.499L275.605 647.131C275.574 648.448 276.121 649.68 277.073 650.44L266.723 681.796Z" fill="white" fill-opacity="0.6"/>
</g>
<g clip-path="url(#clip9_392_3558)">
<path d="M1030.98 165.61C1032.43 165.603 1033.79 164.913 1034.66 163.758L1047.82 168.102C1047.83 169.544 1048.51 170.913 1049.67 171.777L1038.44 205.788C1037 205.795 1035.63 206.485 1034.77 207.639L1021.61 203.296C1021.6 201.853 1020.91 200.485 1019.76 199.621L1030.98 165.61ZM1029.98 163.989L1017.99 200.325C1019.64 200.87 1020.53 202.65 1019.99 204.3L1035.47 209.412C1036.02 207.761 1037.8 206.864 1039.45 207.409L1051.44 171.073C1049.79 170.528 1048.89 168.748 1049.44 167.097L1033.95 161.986C1033.41 163.637 1031.63 164.533 1029.98 163.989Z" fill="white" fill-opacity="0.6"/>
<path d="M1032.08 167.444C1033.3 167.401 1034.47 166.736 1035.23 165.658L1046.23 169.289C1046.2 170.607 1046.75 171.838 1047.7 172.6L1037.35 203.955C1036.13 203.997 1034.96 204.663 1034.2 205.74L1023.2 202.109C1023.23 200.791 1022.68 199.56 1021.73 198.799L1032.08 167.444Z" fill="white" fill-opacity="0.6"/>
</g>
</g>
<defs>
<filter id="filter0_d_392_3558" x="0" y="-27" width="1448" height="828" filterUnits="userSpaceOnUse" color-interpolation-filters="sRGB">
<feFlood flood-opacity="0" result="BackgroundImageFix"/>
<feColorMatrix in="SourceAlpha" type="matrix" values="0 0 0 0 0 0 0 0 0 0 0 0 0 0 0 0 0 0 127 0" result="hardAlpha"/>
<feOffset dy="4"/>
<feGaussianBlur stdDeviation="2"/>
<feComposite in2="hardAlpha" operator="out"/>
<feColorMatrix type="matrix" values="0 0 0 0 0 0 0 0 0 0 0 0 0 0 0 0 0 0 0.25 0"/>
<feBlend mode="normal" in2="BackgroundImageFix" result="effect1_dropShadow_392_3558"/>
<feBlend mode="normal" in="SourceGraphic" in2="effect1_dropShadow_392_3558" result="shape"/>
</filter>
<clipPath id="clip0_392_3558">
<rect width="63.6169" height="32.2664" fill="white" transform="translate(79.2729 159.457) rotate(45)"/>
</clipPath>
<clipPath id="clip1_392_3558">
<rect width="63.6169" height="32.2664" fill="white" transform="translate(1074.82 691) rotate(45)"/>
</clipPath>
<clipPath id="clip2_392_3558">
<rect width="63.6169" height="32.2664" fill="white" transform="translate(1320.82 584) rotate(45)"/>
</clipPath>
<clipPath id="clip3_392_3558">
<rect width="83.0608" height="42.1283" fill="white" transform="translate(33.7892 536) rotate(45)"/>
</clipPath>
<clipPath id="clip4_392_3558">
<rect width="63.6169" height="32.2664" fill="white" transform="translate(1239.98 434.8) rotate(-135)"/>
</clipPath>
<clipPath id="clip5_392_3558">
<rect width="48.4269" height="24.562" fill="white" transform="translate(293.373 354.841) rotate(103.757)"/>
</clipPath>
<clipPath id="clip6_392_3558">
<rect width="48.4269" height="24.562" fill="white" transform="translate(1331 114.038) rotate(-76.2433)"/>
</clipPath>
<clipPath id="clip7_392_3558">
<rect width="122.914" height="62.342" fill="white" transform="translate(338.48 31) rotate(64.9532)"/>
</clipPath>
<clipPath id="clip8_392_3558">
<rect width="44.5597" height="22.6006" fill="white" transform="translate(281.802 645.925) rotate(108.266)"/>
</clipPath>
<clipPath id="clip9_392_3558">
<rect width="44.5597" height="22.6006" fill="white" transform="translate(1017 203.314) rotate(-71.7336)"/>
</clipPath>
</defs>
</svg>
